<svg width="" height="" viewBox="0 0 640 270" fill="none" xmlns="http://www.w3.org/2000/svg">
<path d="M172.4 212V108.4L241.2 212H266.4V65.8H241.2V169.4L172.6 65.8H147.2V212H172.4ZM339.363 214.6C365.163 214.6 383.163 201.6 387.363 180H364.763C361.963 189.4 353.163 194.6 339.763 194.6C323.563 194.6 314.363 185.8 312.563 168.4L386.963 168.2V160.8C386.963 130 368.163 110.2 338.563 110.2C309.563 110.2 289.363 131.6 289.363 162.6C289.363 193.2 309.963 214.6 339.363 214.6ZM338.763 130.2C353.363 130.2 362.763 139.2 362.763 152.8H313.163C315.563 138 324.363 130.2 338.763 130.2ZM423.994 212H447.794L461.394 169.6C466.394 153.4 468.194 146.4 469.194 141.8C469.994 146.8 472.194 156.2 476.194 169.2L489.794 212H512.594L546.794 113.2H520.994L507.794 155.6C505.994 161.8 502.794 173.6 501.194 181C499.994 174.4 495.994 159.6 494.794 155.6L481.594 113.2H456.794L443.194 155.6C439.994 165.4 438.194 171.6 436.394 181.2C434.594 172 432.594 163.4 430.394 155.6L417.394 113.2H391.994L423.994 212ZM551.82 182C551.82 201.4 567.42 214.6 592.02 214.6C616.42 214.6 633.42 202.2 633.42 182.2C633.42 167 625.02 159.4 608.42 155.6L590.62 151.4C582.22 149.4 577.82 145.8 577.82 140.2C577.82 132.8 583.42 128.4 593.02 128.4C602.42 128.4 608.02 133.8 608.22 142.2H631.42C631.22 123 616.22 110.2 594.02 110.2C571.22 110.2 554.82 121.8 554.82 141.2C554.82 157 563.42 165.4 581.22 169.4L599.02 173.6C607.82 175.6 610.42 179.2 610.42 184.2C610.42 191.4 604.22 196 592.82 196C581.62 196 575.22 190.6 575.02 182H551.82Z" fill="black"/>
<path d="M7.8 106.6C7.8 129 20.8 143.2 45.6 148.6L68.8 153.8C80.8 156.4 85.8 162.2 85.8 172C85.8 184.2 75 191.6 58 191.6C41.6 191.6 31.6 184.2 31.4 171.8H5.8C6.4 198 26.8 214.6 58 214.6C90.2 214.6 111.4 197 111.4 169.8C111.4 148 99.2 135.2 74.2 129.8L51.2 124.8C39 122 33.4 116.2 33.4 105.8C33.4 93.6 43.6 86 59.4 86C73.8 86 82.8 93.4 83.4 106H109C108.2 79.6 89.4 63.2 59.8 63.2C29 63.2 7.8 81 7.8 106.6Z" fill="black"/>
</svg>
