<svg width="" height="" viewBox="0 0 610 270" fill="none" xmlns="http://www.w3.org/2000/svg">
<path d="M77.6807 206.514C74.2497 210.885 71.4274 213.293 69.2139 213.735C67.0557 214.233 65.2572 214.289 63.8184 213.901C62.3796 213.514 61.1068 212.878 60 211.992C57.6758 210 56.5137 207.344 56.5137 204.023C56.5137 201.589 57.2607 199.154 58.7549 196.719C91.0173 145.42 108.56 117.64 111.382 113.379C118.022 103.529 121.868 97.9948 122.92 96.7773L124.995 94.2871C131.193 87.1484 139.245 83.5791 149.15 83.5791C156.842 83.5791 162.1 85.2669 164.922 88.6426C165.586 89.362 165.918 90.7454 165.918 92.793C165.973 94.8405 166.084 98.1055 166.25 102.588L166.665 116.865C166.831 121.901 167.025 127.048 167.246 132.305L167.744 147.744C168.187 157.705 168.574 166.283 168.906 173.477C171.064 169.658 173.25 165.203 175.464 160.112L182.52 144.009C188.939 129.621 195.137 118.249 201.113 109.893C204.876 104.525 211.074 101.841 219.707 101.841C226.071 101.841 231.771 103.224 236.807 105.991C239.85 107.651 241.344 109.118 241.289 110.391C241.289 111.553 240.874 112.66 240.044 113.711L238.301 116.118C234.372 121.597 230.498 127.297 226.68 133.218L215.557 150.898C199.951 176.686 190.903 191.489 188.413 195.308C185.923 199.126 184.014 201.81 182.686 203.359C181.413 204.854 179.725 206.126 177.622 207.178C175.575 208.229 173.223 209.17 170.566 210C164.811 211.826 160.024 212.739 156.206 212.739C149.787 212.739 145.443 211.826 143.174 210C140.739 207.786 137.308 194.948 132.881 171.484L130.059 155.879C129.173 150.566 128.371 145.282 127.651 140.024C125.825 142.847 123.473 146.195 120.596 150.068L96.1914 182.607L77.6807 206.514ZM490.312 185.845C487.601 187.339 484.585 188.556 481.265 189.497C478 190.438 474.126 190.908 469.644 190.908C465.161 190.908 460.374 189.469 455.283 186.592C442.611 198.158 430.934 206.292 420.254 210.996C416.934 212.435 414.443 213.154 412.783 213.154C411.123 213.154 409.546 213.044 408.052 212.822C406.558 212.601 405.091 212.324 403.652 211.992C400.166 211.107 397.869 210.304 396.763 209.585C395.656 208.81 394.521 207.786 393.359 206.514C392.197 205.241 391.146 203.636 390.205 201.699C388.047 197.438 386.663 191.877 386.055 185.015C372.663 196.857 364.473 203.774 361.484 205.767C358.551 207.759 356.117 209.198 354.18 210.083C350.638 211.743 346.82 212.573 342.725 212.573C338.685 212.573 335.143 211.688 332.1 209.917C329.111 208.146 326.566 205.905 324.463 203.193C320.146 197.549 317.988 191.323 317.988 184.517C317.988 175.939 320.146 167.389 324.463 158.867C330.993 145.918 340.068 137.23 351.689 132.803C355.563 131.309 358.856 130.562 361.567 130.562C364.334 130.562 366.493 130.7 368.042 130.977C369.591 131.198 371.003 131.641 372.275 132.305C375.264 133.799 376.758 136.178 376.758 139.443C376.758 142.266 375.596 145.282 373.271 148.491C370.947 151.701 368.955 154.302 367.295 156.294C365.635 158.286 364.113 160.306 362.729 162.354C359.465 167.113 357.832 171.235 357.832 174.722C357.832 177.267 359.52 178.54 362.896 178.54C368.153 178.54 376.398 173.338 387.632 162.935C389.956 155.076 393.691 148.381 398.838 142.847C404.593 136.649 410.957 133.55 417.93 133.55C423.796 133.55 427.78 134.906 429.883 137.617C430.602 138.503 430.962 139.36 430.962 140.19C430.962 140.965 430.492 142.1 429.551 143.594L421.582 156.045C415.384 165.729 412.285 172.979 412.285 177.793C412.285 182.054 414.886 184.185 420.088 184.185C424.017 184.185 431.017 179.287 441.089 169.492C440.701 167.998 440.508 166.476 440.508 164.927C440.508 163.377 440.868 161.662 441.587 159.78C442.362 157.899 443.413 155.907 444.741 153.804C446.069 151.701 447.619 149.598 449.39 147.495C451.16 145.392 453.07 143.483 455.117 141.768C459.71 138.005 464.054 136.123 468.149 136.123C475.62 136.123 479.355 139.914 479.355 147.495C479.355 152.31 477.972 157.345 475.205 162.603C475.205 164.318 476.146 165.785 478.027 167.002C478.581 167.389 479.355 167.583 480.352 167.583C481.403 167.583 482.759 167.14 484.419 166.255C486.079 165.369 487.739 164.318 489.399 163.101C491.06 161.883 492.609 160.666 494.048 159.448C495.487 158.175 496.953 156.93 498.447 155.713C503.372 151.895 507.052 149.985 509.487 149.985C511.147 149.985 512.503 150.483 513.555 151.479C515.436 153.195 516.377 154.495 516.377 155.381C516.377 156.266 516.156 157.179 515.713 158.12C515.27 159.061 514.689 160.14 513.97 161.357C513.25 162.52 512.42 163.737 511.479 165.01C507.661 170.212 504.95 173.67 503.345 175.386C501.795 177.046 499.914 178.817 497.7 180.698C495.542 182.58 493.079 184.295 490.312 185.845ZM550.244 129.15C550.798 130.257 551.074 131.724 551.074 133.55C551.074 135.321 550.161 137.34 548.335 139.609C549.774 141.104 551.6 142.847 553.813 144.839C556.082 146.776 558.268 148.906 560.371 151.23C565.462 156.93 568.008 162.381 568.008 167.583C568.008 171.014 565.656 175.192 560.952 180.117C559.513 181.667 557.936 183.105 556.221 184.434C561.976 182.22 568.893 177.821 576.973 171.235L586.685 163.267C592.329 158.563 596.092 155.851 597.974 155.132C599.91 154.412 601.654 154.053 603.203 154.053C604.753 154.053 606.247 154.44 607.686 155.215C609.18 155.99 609.927 157.262 609.927 159.033C609.927 160.749 609.65 162.437 609.097 164.097C608.543 165.701 607.879 167.196 607.104 168.579C605.998 170.571 604.393 172.619 602.29 174.722C596.479 180.2 590.835 185.236 585.356 189.829C579.933 194.367 574.316 198.268 568.506 201.533C556.221 208.395 542.607 211.826 527.666 211.826C519.31 211.826 512.061 209.696 505.918 205.435C503.372 203.664 501.408 201.838 500.024 199.956C498.696 198.019 498.032 196.525 498.032 195.474C498.032 194.367 498.392 193.232 499.111 192.07C499.831 190.853 500.799 189.608 502.017 188.335C503.234 187.062 504.618 185.789 506.167 184.517C507.772 183.244 509.404 182.109 511.064 181.113C514.938 178.844 517.816 177.71 519.697 177.71C521.634 177.71 523.101 177.959 524.097 178.457C525.093 178.9 526.006 179.398 526.836 179.951C529.105 181.501 530.71 182.275 531.65 182.275C533.919 182.275 535.054 180.726 535.054 177.627C535.054 174.749 533.532 171.291 530.488 167.251C529.271 165.591 527.998 163.958 526.67 162.354C525.342 160.749 524.235 159.172 523.35 157.622C521.579 159.67 519.365 161.772 516.709 163.931L508.657 170.737C503.068 175.552 497.894 177.848 493.135 177.627C490.368 177.406 488.984 174.334 488.984 168.413C488.984 167.362 489.067 166.338 489.233 165.342C489.51 163.626 491.198 161.551 494.297 159.116C497.396 156.681 499.637 155.021 501.021 154.136C502.459 153.195 503.677 152.365 504.673 151.646L513.472 145.669C513.472 140.024 516.737 134.85 523.267 130.146C529.465 125.719 535.607 123.506 541.694 123.506C545.568 123.506 548.418 125.387 550.244 129.15Z" fill="black"/>
<path d="M344.302 148.989C346.958 148.989 348.286 150.483 348.286 153.472C348.286 155.464 347.594 157.982 346.211 161.025C344.883 164.014 342.946 166.836 340.4 169.492C337.855 172.093 334.922 174.805 331.602 177.627C328.337 180.449 324.491 183.41 320.063 186.509C315.692 189.608 310.85 192.679 305.537 195.723C300.225 198.766 294.58 201.506 288.604 203.94C275.378 209.364 262.567 212.075 250.171 212.075C240.708 212.075 232.435 209.613 225.352 204.688C217.936 199.541 214.229 193.288 214.229 185.928C214.229 174.362 220.454 163.377 232.905 152.974C243.641 144.009 256.286 137.064 270.84 132.139C279.694 129.15 287.192 127.656 293.335 127.656C298.315 127.656 302.521 128.874 305.952 131.309C309.604 133.965 311.431 137.534 311.431 142.017C311.431 149.045 305.869 156.82 294.746 165.342C292.975 166.725 291.37 167.887 289.932 168.828L286.943 170.82C281.41 174.694 272.998 179.038 261.709 183.853C265.195 185.679 268.433 186.592 271.421 186.592C274.465 186.592 277.176 186.232 279.556 185.513C281.991 184.793 284.73 183.77 287.773 182.441C290.817 181.113 294.054 179.536 297.485 177.71C300.972 175.828 304.486 173.781 308.027 171.567C315.941 166.642 322.803 161.606 328.613 156.46C331.657 153.638 335.531 151.396 340.234 149.736C341.784 149.238 343.14 148.989 344.302 148.989ZM252.744 172.314L257.31 169.99C258.804 169.215 260.132 168.496 261.294 167.832C272.472 161.413 278.836 157.456 280.386 155.962C281.935 154.468 282.71 153.444 282.71 152.891C282.71 152.282 282.544 151.59 282.212 150.815C281.88 150.041 281.437 149.349 280.884 148.74C279.556 147.191 278.145 146.416 276.65 146.416C275.156 146.416 273.496 146.693 271.67 147.246C269.899 147.799 268.101 148.574 266.274 149.57C264.448 150.511 262.677 151.673 260.962 153.057C259.302 154.385 257.835 155.824 256.562 157.373C253.63 160.859 252.163 163.875 252.163 166.421C252.163 168.966 252.357 170.931 252.744 172.314Z" fill="#FFA000"/>
<path d="M7.8 106.6C7.8 129 20.8 143.2 45.6 148.6L68.8 153.8C80.8 156.4 85.8 162.2 85.8 172C85.8 184.2 75 191.6 58 191.6C41.6 191.6 31.6 184.2 31.4 171.8H5.8C6.4 198 26.8 214.6 58 214.6C90.2 214.6 111.4 197 111.4 169.8C111.4 148 99.2 135.2 74.2 129.8L51.2 124.8C39 122 33.4 116.2 33.4 105.8C33.4 93.6 43.6 86 59.4 86C73.8 86 82.8 93.4 83.4 106H109C108.2 79.6 89.4 63.2 59.8 63.2C29 63.2 7.8 81 7.8 106.6Z" fill="black"/>
</svg>
